<?xml version="1.0" encoding="UTF-8"?>
<svg version="1.1" xmlns="http://www.w3.org/2000/svg" width="460" height="460">
<path d="M0 0 C151.8 0 303.6 0 460 0 C460 151.8 460 303.6 460 460 C308.2 460 156.4 460 0 460 C0 308.2 0 156.4 0 0 Z " fill="#141106" transform="translate(0,0)"/>
<path d="M0 0 C2.875 2.6875 2.875 2.6875 5 5 C7.60966048 7.67179526 9.88855331 9.92570221 13 12 C14.02137457 13.65365406 15.01612294 15.32376502 16 17 C16.94768788 18.25809 17.90713277 19.50736739 18.875 20.75 C29.32837899 34.56709005 35.28578777 52.68035345 36 70 C36.0515625 71.01835937 36.103125 72.03671875 36.15625 73.0859375 C36.62626759 90.51575661 32.24362749 107.67563917 24 123 C23.32517578 124.43085938 23.32517578 124.43085938 22.63671875 125.890625 C20.84543758 129.29363172 18.73147663 132.2906867 16.375 135.3125 C15.93841064 135.87573975 15.50182129 136.43897949 15.05200195 137.01928711 C9.82175637 143.65030592 3.95985583 150.14919139 -3 155 C-3.66 155 -4.32 155 -5 155 C-5.24234375 153.87722656 -5.4846875 152.75445312 -5.734375 151.59765625 C-8.84182776 136.25556983 -8.84182776 136.25556983 -18 124 C-21.09972112 122.38048274 -21.09972112 122.38048274 -24.5 121.125 C-29.52707463 119.08367453 -34.41876373 116.91216658 -39.25 114.4375 C-40.30703125 113.89996094 -41.3640625 113.36242187 -42.453125 112.80859375 C-45.37206549 110.73578785 -46.11966751 109.42837558 -47 106 C-46.79906278 103.18687887 -46.50987933 101.60699921 -44.6875 99.4375 C-44.130625 98.963125 -43.57375 98.48875 -43 98 C-42.319375 97.278125 -41.63875 96.55625 -40.9375 95.8125 C-39 94 -39 94 -37 94 C-36.731875 93.0925 -36.46375 92.185 -36.1875 91.25 C-35 88 -35 88 -33.45703125 86.32421875 C-31.3208814 82.9166875 -31.54669558 79.46825177 -31.5 75.5625 C-31.43452833 70.11432181 -31.26084856 66.58260029 -28 62 C-25.22297316 56.55414218 -23.1328509 51.5341994 -24.1875 45.37109375 C-26.46761739 38.71709733 -30.38049968 33.14329604 -36 29 C-36 28.34 -36 27.68 -36 27 C-38.97 26.34 -41.94 25.68 -45 25 C-45.495 23.02 -45.495 23.02 -46 21 C-64.08189382 21.59320489 -64.08189382 21.59320489 -78.5625 31.75 C-81 34 -81 34 -85 34 C-85.14929757 36.68735631 -85.25017853 38.51527911 -84 40.9375 C-82.66656257 43.6877147 -82.8629965 45.98592292 -83 49 C-82.34 49 -81.68 49 -81 49 C-80.89115881 50.41493551 -80.81402383 51.83232943 -80.75 53.25 C-80.70359375 54.03890625 -80.6571875 54.8278125 -80.609375 55.640625 C-81 58 -81 58 -82.984375 59.890625 C-85.72974168 62.76368315 -85.53589866 64.58704583 -85.5 68.5 C-85.5103125 69.6240625 -85.520625 70.748125 -85.53125 71.90625 C-85.30719251 75.09571808 -85.30719251 75.09571808 -82.984375 76.859375 C-80.32809245 79.72481365 -80.5836598 81.60503564 -80.6484375 85.39453125 C-80.68195313 86.17183594 -80.71546875 86.94914062 -80.75 87.75 C-80.76804687 88.54277344 -80.78609375 89.33554688 -80.8046875 90.15234375 C-80.85166918 92.10208348 -80.92340956 94.05119878 -81 96 C-81.66 96 -82.32 96 -83 96 C-83.33 97.65 -83.66 99.3 -84 101 C-84.7425 101.020625 -85.485 101.04125 -86.25 101.0625 C-89.81774711 102.27877742 -90.08396005 104.01491619 -91.73046875 107.22265625 C-95.97064891 113.15890848 -106.35598104 114.36072803 -113 116 C-113 116.66 -113 117.32 -113 118 C-113.66644531 118.14695312 -114.33289063 118.29390625 -115.01953125 118.4453125 C-123.57526514 120.52740718 -130.6952793 124.1301862 -138 129 C-139.21284876 132.05429073 -139.21284876 132.05429073 -140 135 C-142.86975837 133.96318407 -143.89722339 133.16612486 -145.52734375 130.53125 C-146.22537109 129.03078125 -146.22537109 129.03078125 -146.9375 127.5 C-148.74375386 123.66455415 -150.59320817 119.90724196 -152.625 116.1875 C-156.36501663 108.73167396 -159.43185885 99.3972555 -159 91 C-159.66 91 -160.32 91 -161 91 C-161.99962478 69.39887739 -160.36623991 47.86534532 -149 29 C-148.10189565 27.29285949 -147.20580847 25.58465497 -146.3125 23.875 C-144.55897162 20.7441127 -142.5896447 18.49715739 -140 16 C-139.65772583 14.66893378 -139.32248257 13.33599921 -139 12 C-137.515 11.505 -137.515 11.505 -136 11 C-132.17302847 7.55835627 -132.17302847 7.55835627 -130 3 C-129.01 2.67 -128.02 2.34 -127 2 C-126.41605469 1.4121875 -125.83210938 0.824375 -125.23046875 0.21875 C-122.52490331 -2.47260056 -119.5186089 -4.46774065 -116.3125 -6.5 C-115.68601563 -6.89799805 -115.05953125 -7.29599609 -114.4140625 -7.70605469 C-109.75886545 -10.61675263 -105.14491367 -13.06011452 -100 -15 C-98.44925781 -15.63035156 -98.44925781 -15.63035156 -96.8671875 -16.2734375 C-64.23060167 -28.90459935 -26.98017532 -21.71025794 0 0 Z " fill="#FAC73F" transform="translate(293,151)"/>
<path d="M0 0 C0.99 0.495 0.99 0.495 2 1 C2.4140625 3.06640625 2.4140625 3.06640625 2.625 5.5625 C2.69976562 6.38878906 2.77453125 7.21507812 2.8515625 8.06640625 C2.92503906 9.02353516 2.92503906 9.02353516 3 10 C3.66 10 4.32 10 5 10 C5 11.98 5 13.96 5 16 C1.82358431 12.54737425 1.48290831 9.58762893 1 5 C0.68033861 3.33065717 0.35268934 1.6626783 0 0 Z " fill="#C88916" transform="translate(207,190)"/>
</svg>
