<?xml version="1.0" encoding="UTF-8"?>
<svg version="1.1" viewBox="0 0 460 460" xmlns="http://www.w3.org/2000/svg">
<path transform="translate(0)" d="m0 0h460v460h-460v-460z" fill="#141106"/>
<path transform="translate(293,151)" d="m0 0c2.875 2.6875 2.875 2.6875 5 5 2.6097 2.6718 4.8886 4.9257 8 7 1.0214 1.6537 2.0161 3.3238 3 5 0.94769 1.2581 1.9071 2.5074 2.875 3.75 10.453 13.817 16.411 31.93 17.125 49.25 0.051562 1.0184 0.10312 2.0367 0.15625 3.0859 0.47002 17.43-3.9126 34.59-12.156 49.914-0.67482 1.4309-0.67482 1.4309-1.3633 2.8906-1.7913 3.403-3.9052 6.4001-6.2617 9.4219-0.43659 0.56324-0.87318 1.1265-1.323 1.7068-5.2302 6.631-11.092 13.13-18.052 17.981h-2c-0.24234-1.1228-0.48469-2.2455-0.73438-3.4023-3.1075-15.342-3.1075-15.342-12.266-27.598-3.0997-1.6195-3.0997-1.6195-6.5-2.875-5.0271-2.0413-9.9188-4.2128-14.75-6.6875-1.057-0.53754-2.1141-1.0751-3.2031-1.6289-2.9189-2.0728-3.6665-3.3802-4.5469-6.8086 0.20094-2.8131 0.49012-4.393 2.3125-6.5625 0.55688-0.47438 1.1138-0.94875 1.6875-1.4375 0.68062-0.72188 1.3612-1.4438 2.0625-2.1875 1.9375-1.8125 1.9375-1.8125 3.9375-1.8125 0.26812-0.9075 0.53625-1.815 0.8125-2.75 1.1875-3.25 1.1875-3.25 2.7305-4.9258 2.1361-3.4075 1.9103-6.856 1.957-10.762 0.065472-5.4482 0.23915-8.9799 3.5-13.562 2.777-5.4459 4.8671-10.466 3.8125-16.629-2.2801-6.654-6.193-12.228-11.812-16.371v-2c-2.97-0.66-5.94-1.32-9-2l-1-4c-18.082 0.5932-18.082 0.5932-32.562 10.75-2.4375 2.25-2.4375 2.25-6.4375 2.25-0.1493 2.6874-0.25018 4.5153 1 6.9375 1.3334 2.7502 1.137 5.0484 1 8.0625h2c0.10884 1.4149 0.18598 2.8323 0.25 4.25l0.14062 2.3906c-0.39062 2.3594-0.39062 2.3594-2.375 4.25-2.7454 2.8731-2.5515 4.6964-2.5156 8.6094l-0.03125 3.4062c0.22406 3.1895 0.22406 3.1895 2.5469 4.9531 2.6563 2.8654 2.4007 4.7457 2.3359 8.5352-0.033516 0.7773-0.067031 1.5546-0.10156 2.3555-0.018047 0.79277-0.036094 1.5855-0.054688 2.4023-0.046982 1.9497-0.11872 3.8989-0.19531 5.8477h-2l-1 5-2.25 0.0625c-3.5677 1.2163-3.834 2.9524-5.4805 6.1602-4.2402 5.9363-14.626 7.1381-21.27 8.7773v2c-0.66645 0.14695-1.3329 0.29391-2.0195 0.44531-8.5557 2.0821-15.676 5.6849-22.98 10.555-1.2128 3.0543-1.2128 3.0543-2 6-2.8698-1.0368-3.8972-1.8339-5.5273-4.4688-0.69803-1.5005-0.69803-1.5005-1.4102-3.0312-1.8063-3.8354-3.6557-7.5928-5.6875-11.312-3.74-7.4558-6.8069-16.79-6.375-25.188h-2c-0.99962-21.601 0.63376-43.135 12-62 0.8981-1.7071 1.7942-3.4153 2.6875-5.125 1.7535-3.1309 3.7229-5.3778 6.3125-7.875 0.34227-1.3311 0.67752-2.664 1-4l3-1c3.827-3.4416 3.827-3.4416 6-8 0.99-0.33 1.98-0.66 3-1 0.58395-0.58781 1.1679-1.1756 1.7695-1.7812 2.7056-2.6914 5.7119-4.6865 8.918-6.7188 0.62648-0.398 1.253-0.796 1.8984-1.2061 4.6552-2.9107 9.2691-5.3541 14.414-7.2939 1.5507-0.63035 1.5507-0.63035 3.1328-1.2734 32.637-12.631 69.887-5.4368 96.867 16.273z" fill="#FAC73F"/>
<path transform="translate(207,190)" d="m0 0 2 1c0.41406 2.0664 0.41406 2.0664 0.625 4.5625 0.074766 0.82629 0.14953 1.6526 0.22656 2.5039 0.073477 0.95713 0.073477 0.95713 0.14844 1.9336h2v6c-3.1764-3.4526-3.5171-6.4124-4-11-0.31966-1.6693-0.64731-3.3373-1-5z" fill="#C88916"/>
</svg>
